<mxfile host="app.diagrams.net" modified="2023-05-28T13:19:41.718Z" agent="Mozilla/5.0 (Windows NT 10.0; Win64; x64) AppleWebKit/537.36 (KHTML, like Gecko) Chrome/113.0.0.0 Safari/537.36" etag="_igbIWFvmI_uifnHFQbF" version="21.2.9" type="github">
  <diagram name="페이지-1" id="dRtoMQbdbLruas9ugEtD">
    <mxGraphModel dx="1050" dy="541" grid="1" gridSize="10" guides="1" tooltips="1" connect="1" arrows="1" fold="1" page="1" pageScale="1" pageWidth="827" pageHeight="1169" math="0" shadow="0">
      <root>
        <mxCell id="0" />
        <mxCell id="1" parent="0" />
        <mxCell id="aBnCvOdkWetTmkmBROR1-5" style="edgeStyle=orthogonalEdgeStyle;rounded=0;orthogonalLoop=1;jettySize=auto;html=1;exitX=1;exitY=0.5;exitDx=0;exitDy=0;entryX=0;entryY=0.5;entryDx=0;entryDy=0;" edge="1" parent="1" source="aBnCvOdkWetTmkmBROR1-1" target="aBnCvOdkWetTmkmBROR1-3">
          <mxGeometry relative="1" as="geometry" />
        </mxCell>
        <mxCell id="aBnCvOdkWetTmkmBROR1-1" value="&lt;font style=&quot;font-size: 14px;&quot;&gt;젯슨 나노&lt;/font&gt;" style="rounded=1;whiteSpace=wrap;html=1;" vertex="1" parent="1">
          <mxGeometry x="70" y="230" width="140" height="80" as="geometry" />
        </mxCell>
        <mxCell id="aBnCvOdkWetTmkmBROR1-6" style="edgeStyle=orthogonalEdgeStyle;rounded=0;orthogonalLoop=1;jettySize=auto;html=1;exitX=1;exitY=0.5;exitDx=0;exitDy=0;entryX=0;entryY=0.5;entryDx=0;entryDy=0;" edge="1" parent="1" source="aBnCvOdkWetTmkmBROR1-3" target="aBnCvOdkWetTmkmBROR1-4">
          <mxGeometry relative="1" as="geometry" />
        </mxCell>
        <mxCell id="aBnCvOdkWetTmkmBROR1-3" value="&lt;span style=&quot;font-size: 14px;&quot;&gt;ESP32&lt;/span&gt;" style="rounded=1;whiteSpace=wrap;html=1;" vertex="1" parent="1">
          <mxGeometry x="344" y="230" width="140" height="80" as="geometry" />
        </mxCell>
        <mxCell id="aBnCvOdkWetTmkmBROR1-4" value="&lt;font style=&quot;font-size: 14px;&quot;&gt;ESP32&lt;/font&gt;" style="rounded=1;whiteSpace=wrap;html=1;" vertex="1" parent="1">
          <mxGeometry x="610" y="230" width="140" height="80" as="geometry" />
        </mxCell>
        <mxCell id="aBnCvOdkWetTmkmBROR1-7" value="Tx" style="text;strokeColor=none;align=center;fillColor=none;html=1;verticalAlign=middle;whiteSpace=wrap;rounded=0;" vertex="1" parent="1">
          <mxGeometry x="170" y="320" width="60" height="30" as="geometry" />
        </mxCell>
        <mxCell id="aBnCvOdkWetTmkmBROR1-8" value="Rx" style="text;strokeColor=none;align=center;fillColor=none;html=1;verticalAlign=middle;whiteSpace=wrap;rounded=0;" vertex="1" parent="1">
          <mxGeometry x="320" y="320" width="60" height="30" as="geometry" />
        </mxCell>
        <mxCell id="aBnCvOdkWetTmkmBROR1-9" value="Tx" style="text;strokeColor=none;align=center;fillColor=none;html=1;verticalAlign=middle;whiteSpace=wrap;rounded=0;" vertex="1" parent="1">
          <mxGeometry x="460" y="320" width="60" height="30" as="geometry" />
        </mxCell>
        <mxCell id="aBnCvOdkWetTmkmBROR1-10" value="Rx" style="text;strokeColor=none;align=center;fillColor=none;html=1;verticalAlign=middle;whiteSpace=wrap;rounded=0;" vertex="1" parent="1">
          <mxGeometry x="590" y="320" width="60" height="30" as="geometry" />
        </mxCell>
        <mxCell id="aBnCvOdkWetTmkmBROR1-12" value="모드신호&lt;br&gt;+&lt;br&gt;tilt,pan 각도 전송" style="text;strokeColor=none;align=center;fillColor=none;html=1;verticalAlign=middle;whiteSpace=wrap;rounded=0;" vertex="1" parent="1">
          <mxGeometry x="230" y="200" width="100" height="70" as="geometry" />
        </mxCell>
        <mxCell id="aBnCvOdkWetTmkmBROR1-13" value="yaw, pitch 각도 전송" style="text;strokeColor=none;align=center;fillColor=none;html=1;verticalAlign=middle;whiteSpace=wrap;rounded=0;" vertex="1" parent="1">
          <mxGeometry x="520" y="220" width="60" height="40" as="geometry" />
        </mxCell>
      </root>
    </mxGraphModel>
  </diagram>
</mxfile>
